<?xml version="1.0" encoding="UTF-8"?>
<svg width="16px" height="16px" viewBox="0 0 16 16" version="1.1" xmlns="http://www.w3.org/2000/svg" xmlns:xlink="http://www.w3.org/1999/xlink">
    <!-- Generator: Sketch 64 (93537) - https://sketch.com -->
    <title>time</title>
    <desc>Created with Sketch.</desc>
    <g id="Symbols" stroke="none" stroke-width="1" fill="none" fill-rule="evenodd">
        <g id="survery" transform="translate(-278.000000, -151.000000)" fill="#ACACAC" fill-rule="nonzero">
            <g id="time" transform="translate(278.000000, 150.000000)">
                <path d="M7.74998152,16.7499958 C12.0312213,16.7499958 15.499963,13.2812541 15.499963,9.00001431 C15.499963,4.71877451 12.0312213,1.25003278 7.74998152,1.25003278 C3.46874173,1.25003278 0,4.71877451 0,9.00001431 C0,13.2812541 3.46874173,16.7499958 7.74998152,16.7499958 Z M7.74998152,15.2499994 C4.29686476,15.2499994 1.49999642,12.4531311 1.49999642,9.00001431 C1.49999642,5.54689754 4.29686476,2.75002921 7.74998152,2.75002921 C11.2030983,2.75002921 13.9999666,5.54689754 13.9999666,9.00001431 C13.9999666,12.4531311 11.2030983,15.2499994 7.74998152,15.2499994 Z M10.2062135,11.9062574 L10.7937365,11.0968721 C10.9155929,10.9281408 10.8812302,10.6937664 10.7124684,10.5718795 L8.62497944,9.05314528 L8.62497944,4.62502474 C8.62497944,4.41878743 8.45621763,4.25002563 8.24998033,4.25002563 L7.24998271,4.25002563 C7.04374541,4.25002563 6.87498361,4.41878743 6.87498361,4.62502474 L6.87498361,9.75626861 C6.87498361,9.87501222 6.93122737,9.98749974 7.02812045,10.059399 L9.68122081,11.987495 C9.84998262,12.1093819 10.0843571,12.0718759 10.2062135,11.9062574 Z"></path>
            </g>
        </g>
    </g>
</svg>